<svg xmlns="http://www.w3.org/2000/svg" viewBox="0 0 303.47 71.89"><defs><style>.cls-1{fill:#231815;}</style></defs><title>立即預訂</title><g id="圖層_2" data-name="圖層 2"><g id="圖層_1-2" data-name="圖層 1"><polygon class="cls-1" points="19.43 6.95 38.76 6.95 34.35 16.8 53.31 18.02 53.31 24.31 44.2 24.31 47.96 47.68 31.16 47.68 36.37 25.9 3.47 27.31 3.47 14.17 23.65 15.49 19.43 6.95"/><polygon class="cls-1" points="9.01 31.16 25.53 31.16 22.06 52.65 57.16 51.34 57.16 64.85 0 61.38 0 53.4 13.7 53.22 9.01 31.16"/><path class="cls-1" d="M97.75,44.3l-6.67,2.44.66,6.19-11.07-.65-.28-11,9.94-.38V42.8h13.61L102.44,7,78.88,9.39,79.26,7s-10.7-.1-11.08,0l-1.5,56.87,27-2.82.57,5.17,13.89-5.92ZM79.82,29.09l9.2,1V20.27l-10.32.85V16.05l13.7,1.5-.47,16.71-12-.85Z"/><polygon class="cls-1" points="112.48 13.05 121.68 13.05 121.68 15.2 138.57 14.13 139.98 51.52 127.88 51.52 124.97 47.49 124.97 42.7 128.72 42.52 129.66 23.37 121.87 21.87 123.84 62.13 110.23 62.13 112.48 13.05"/><polygon class="cls-1" points="150.45 0 150.45 11.45 170.63 9.67 162.46 19.99 155.05 17.18 152.42 22.43 162.55 28.91 148.29 28.91 148.29 35.76 160.4 36.13 159.46 59.13 154.76 59.13 154.58 64.48 158.89 66.73 170.63 66.73 168.37 36.53 173.53 36.53 171.66 45.99 181.61 45.71 181.61 28.91 172.69 29.19 175.32 23.84 170.06 22.06 180.57 13.89 176.07 2.35 150.45 0"/><path class="cls-1" d="M214,56.88h5.25l.28-42.71-15.39.1,3.1-4.79h12.86l.09-9.1L182.73,2.16V8.73l14.92.47-1,6.19h-2.91l.19-1.5-10.42-.09.1,43.92h4.78l-5.63,7.6,4.6,5.54,12.39-10-3.47-3.57,7.32-.18,8.82,14.73,9-8.63Zm-4.13-6.2L193,48.9V43.27l14.36,2.15V37.54L193,38.2V33.36h14.36V27.87l-13.79-2V21.12l16.8,1.4Z"/><polygon class="cls-1" points="237.31 3.57 242 12.01 228.96 13.05 228.96 17.46 261.24 19.71 261.24 11.26 249.13 11.64 253.26 3.57 237.31 3.57"/><polygon class="cls-1" points="233.27 21.68 233.27 31.25 257.58 29.09 257.58 24.03 233.27 21.68"/><polygon class="cls-1" points="233.27 35.38 233.27 40.08 257.58 41.11 257.58 32.47 233.27 35.38"/><path class="cls-1" d="M259.55,67.67l-.94-23.47-18.77,1.41-.09-1.41H232l-1.22,22.34,17.74-.47v1.6Zm-18.86-9V51.9L250.35,53v6.85Z"/><polygon class="cls-1" points="264.9 9.86 264.9 15.77 279.07 15.77 276.82 59.13 271.66 59.13 271.99 64.67 275.88 69.08 290.99 69.08 287.89 17.18 303.47 17.83 303.47 6.1 264.9 9.86"/></g></g></svg>