<svg xmlns="http://www.w3.org/2000/svg" viewBox="0 0 271.83 82.73"><title>資產 39</title><g id="圖層_2" data-name="圖層 2"><g id="圖層_1-2" data-name="圖層 1"><polygon points="5.99 5.9 10.32 13.88 0.83 13.88 0.83 21.04 18.3 21.04 18.3 25.53 4.99 25.53 4.83 36.01 20.3 36.01 20.3 40.5 0 41.34 0 47.49 20.3 47.49 15.81 55.47 1 55.47 1.17 61.63 10.98 62.3 3.49 74.61 8.48 78.77 22.63 63.46 48.75 64.79 48.75 54.31 31.95 54.31 33.28 52.32 26.62 47.99 50.08 48.16 50.08 38.34 29.62 39.17 29.45 35.01 45.42 34.22 45.59 27.19 31.78 26.69 31.78 23.37 49.25 24.03 49.25 13.72 37.94 13.72 44.59 7.73 33.61 1.24 30.45 13.88 15.81 13.88 21.13 8.56 10.98 1.24 5.99 5.9"/><polygon points="22.79 67.46 21.8 72.95 49.08 79.77 51.58 67.46 22.79 67.46"/><polygon points="95.87 0 102.87 9.57 126.45 15.21 120.98 27.68 94.33 13.84 64.43 25.8 61.36 20.67 95.87 0"/><path d="M113,24.77h-6v1.54h-9l3.59-6.15H85.62l3.59,7.52h-6V25.63l-9.91-.17-1.2,54H84.59V75H90.4l.17-6.49h-6V56.21L102,54.5l.34,1.71H114ZM103.77,49.2,83.62,47.89l.3-3.8,16.87,1V37.7H83.62V34h20.15Z"/><polygon points="91.98 58.8 88.79 63.4 119.85 80.01 125.48 69.4 113.98 65.65 124.36 62.55 118.91 53.63 107.93 63.86 91.98 58.8"/><polygon points="142.96 5.68 149.57 10.75 139.51 18.45 141.69 20.27 144.54 20.27 150.48 14.74 155.01 20.27 142.23 27.79 149.66 27.79 153.74 24.36 156.64 26.52 141.69 42.73 136.98 38.16 143.32 32.93 138.61 32.93 136.62 30.96 136.62 27.51 140.6 24.36 134.53 19.18 142.96 5.68"/><polygon points="178.6 69.77 178.09 72.07 168.97 72.07 167.77 75.14 192 82.73 194.3 74.2 187.47 73.86 189.44 69.77 178.6 69.77"/><path d="M181.46,35.67,176.12,29l-3.63,1.36v2.61h-7.34l-.09-6,7.43-.18v1.09l7.88-.46-.72-17.84h-7.07l1-3.27h-9l1.9,3.9-3,.09L163.43,9l-5.61.09V39.74L173,36.66v1.5ZM163.75,20.13h8.77V17h-8.77V14.16l11.93.43L174.39,23l-10.64-.38Z"/><path d="M198.54,20.42l4.82-8.34L200.91,8H190.42V6.31h-8.63L183.66,40h5.25V32.21l7,3.59,7.84-10.13V20.42Zm-8.19-8.56,7.33.36-7.33,7.69Zm-.65,18.77V24.21h8.91Z"/><path d="M197.68,45,174.2,41.4,175.68,40H159.34l-19.07,10.4,2.23,2.34L147.89,51l-.41,30.17,18-4.47V72.79l-8.82.81V67.1l24.82-.41v1.22l8.89.41-.65-17.17L194.16,53Zm-43.29,3.25,16.35-5.48,13.92,7.41H174.4l1.28-3.7H165.46l1.63,3.7h-12.7Zm29,15.33-27.63-.81V60.58h24.48V56.13l-25.8,1.12V54h31.79Z"/><polygon points="211.85 6.76 222.86 6.76 222.86 9.66 235.49 9.66 233.1 3.86 251.1 2.86 249.99 8.4 271.83 7.7 271.83 20.32 259.03 20.32 259.03 17.42 223.88 15.63 223.97 20.32 210.83 20.75 211.85 6.76"/><path d="M266.71,52.57H246.83l-7.76-5.89h8.19v.94h14.59L260.48,22.8,234,24.5l.34-2.21H223.63l-1.88,25.76,13.14-.6-1.71,4.1H219.62v8.87h8.27L224.74,67l7,3.33L220.81,76.2l2.82,4.61,16.81-8,18.68,7.34L265.94,69,254.51,67.5l7-3.15L257,58.54h9.72ZM234.8,39.26l.18-1.7h13.73V33.38l-14.42-1.2V29.47L252.38,32l-2.73,9.3Zm6.53,26.31-6.28-.92,4.17-5.25h9.41Z"/></g></g></svg>