<svg xmlns="http://www.w3.org/2000/svg" viewBox="0 0 300.09 77.8"><title>資產 40</title><g id="圖層_2" data-name="圖層 2"><g id="圖層_1-2" data-name="圖層 1"><polygon points="6.28 3 11.38 8.37 14.92 1.7 26.04 5.88 18.58 16.48 34.68 20.67 28.14 30.75 15.7 20.41 8.9 29.05 2.49 25.38 8.64 15.17 0 11.9 6.28 3"/><polygon points="27.61 6.28 33.5 10.2 38.21 3 43.31 8.11 47.11 1.04 58.63 5.62 51.17 16.22 65.82 20.41 59.54 30.09 48.03 20.8 40.7 30.75 34.68 27.08 40.57 15.89 33.63 11.9 28.66 16.22 24.08 14.13 27.61 6.28"/><polygon points="60.47 6.48 67.09 10.79 60.47 16.79 55.84 13.85 60.47 6.48"/><polygon points="3.89 30.75 18.3 30.75 17.34 32.88 63.2 32.88 63.2 42.24 53.84 42.24 55.84 39.5 15.14 37.93 12.93 42.24 4.31 42.24 3.89 30.75"/><path d="M50.58,56.12,49.84,41.4,26,43V41.4H18.61L16.3,56.12l24.4-1v1Zm-24-5.47V47.5l16.09.84v3.5Z"/><path d="M58.47,76.73l-1.69-18.4L21.66,59.8V58.33H10.73L9.25,76.73l34.6-1.68v1.68ZM22.61,69.47v-4.2l24,1.15-.94,4.84Z"/><polygon points="79.03 4.46 95.37 4.46 95.37 6.48 138.87 4.46 138.87 14 94.72 13.26 91.33 65.27 139.68 64.45 139.68 73.35 80.33 73.35 79.03 4.46"/><path d="M146.12,61.08l-1.75-20.57L130.9,42.24V40.51h-6.85l-2.62,19.57,13.65-.37v1.37Zm-15-8.1V48l5.24.62V53Z"/><path d="M138.26,17.31l-23.81,1.38V17.31H104.6L102.6,37,126,36.49l.13,1.65,13.51-.63ZM127.79,31.65l-13.47-1.74V24.67l14.22.63Z"/><path d="M119.31,60.58l-1.25-20.07L104,41.75V40.51H96.49L95.12,60l12.78-.5v1.62ZM104.6,53V48l5.23.62V53Z"/><polygon points="159.58 2.02 173.92 0.87 172.05 13.84 163.44 13.84 159.58 2.02"/><polygon points="157.21 17.08 176.91 17.08 171.3 31.42 176.91 30.8 171.42 44.02 206.84 44.02 204.84 52.74 169.93 48.88 168.31 52.74 157.21 47.76 166.75 36.91 157.21 35.54 156.46 31.42 161.2 31.42 166.75 22.94 156.46 21.57 157.21 17.08"/><polygon points="209.96 45.83 209.4 54.42 158.33 55.66 158.33 61.76 167.82 61.76 174.94 77.8 187.37 69.67 179.23 61.82 208.38 61.82 207.7 69.11 201.6 69.33 201.6 75.2 208.04 77.8 224.67 77.8 222.73 63.07 227.59 63.07 227.59 54.19 221.94 54.08 221.6 45.83 209.96 45.83"/><path d="M224.67,12V4.61h-7.86L219.68,0H206.84V4.61l-12-.38L192.25,0h-7.73L185,4.23h-6.48V11l18,.25.12,4.62-5.86.24V13.84h-9.1l-2,27.56,29.18-1.13v2h14l-1.38-26.19H203.34l3.5-4.73ZM209.4,37.24l-17.18-.67V34.19l17.18.72Zm1.46-7.79H192.22v-2L210.86,27Zm.68-7.74v1.53l-20.67-1v-2Z"/><path d="M266.83,8.77V2.42l-20.95,2V3.3h-7.79l-.63,28.31,29.37.63V27.86H259l-.32-4.14h7.37l.74-11.79H258l.42-3.16ZM245.36,8h6.21l.57,3.57h-6.78Zm7.42,18.57h-6.06V22.89h6.06Zm6.68-10.47v2.63H246.09V15.61Z"/><polygon points="270.41 1.67 270.41 14.25 275.35 14.25 278.2 8.67 283.04 9.82 283.04 15.61 292.93 13.72 290.62 10.35 299.04 10.67 299.04 3.93 280.3 5.4 280.72 2.88 270.41 1.67"/><polygon points="271.88 61.47 278.72 60.98 282.3 69.61 289.25 68.03 289.25 62.73 295.56 63.4 295.56 66.87 300.09 65.3 300.09 75.5 270.41 75.5 271.88 61.47"/><path d="M274.93,17.33l-.42-1h-5.05l-.74,15.89h23v1.58h7.9V16.35Zm3.79,10h-3.26V20.79h3.26Zm4.32.63V21.82H286l.64,6.11ZM293.35,29H291V22.89h3.68Z"/><path d="M292.88,59.72l-.47-24.84-38.53,1V33.82h-8.52l-.74,25.9,11.26-.21L238.09,70.66l4.42,5.48L266.3,67l-4.52-7.26ZM254.93,48v-2.1l24.63-.45.85-3.56H254.2V39.09l30.63,1-2.42,15.37L256,53.72V51.26l24.42.67V47.09Z"/></g></g></svg>