<svg xmlns="http://www.w3.org/2000/svg" viewBox="0 0 306.18 75.7"><title>資產 38</title><g id="圖層_2" data-name="圖層 2"><g id="圖層_1-2" data-name="圖層 1"><polygon points="12.33 13.86 21.98 25 5.2 35.24 0 30.34 12.33 13.86"/><polygon points="0 47.57 13.96 33.31 22.87 44 5.05 52.77 0 47.57"/><polygon points="10.25 51.87 17.38 51.87 21.98 71.18 6.09 71.18 10.25 51.87"/><polygon points="28.22 16.38 28.22 27.22 62.37 24.55 62.37 16.98 28.22 16.38"/><polygon points="26.29 37.47 64.75 34.05 64.75 45.34 56.73 45.34 59.55 73.85 43.81 73.85 38.02 68.51 38.61 62.86 44.55 63.61 45.29 45.34 26.29 44.89 26.29 37.47"/><polygon points="79.87 25.97 79.87 31.46 89.53 31.46 89.53 37.55 77.5 37.55 77.5 45.42 88.49 45.42 88.49 50.62 83.51 47.2 75.72 60.27 80.32 64.28 88.04 55.67 87.45 69.93 99.48 69.93 98.44 54.33 103.64 62.8 111.21 56.56 102.3 47.95 98.29 50.62 97.99 44.53 108.83 44.38 108.83 38.59 97.69 38.15 97.1 31.02 106.16 31.17 105.56 21.51 79.87 25.97"/><polygon points="111.78 40.51 111.78 47.98 123.61 47.49 123.61 52.7 113.63 53.11 113.82 58.35 122.54 58.35 122.64 63.48 111.78 63.48 111.78 70.95 146.48 70.37 146.48 64.16 133.78 63.87 133.59 59.51 141.34 59.32 141.54 51.76 131.75 51.76 131.75 46.33 143.73 46.52 143.73 40.51 111.78 40.51"/><path d="M143.73,37.85l-1.48-22.72L121.6,16.61V15.13H113l-1.78,21.68L131,36.36v1.49Zm-21.88-8.92V21.51l10.83,1.09v8Z"/><polygon points="157.91 1.26 157.32 11.92 171.67 11.34 171.67 7.17 157.91 1.26"/><polygon points="157.32 21.91 162.85 29.27 175.16 18.78 171.28 14.24 157.32 21.91"/><polygon points="176.03 0 175.16 14.83 178.65 16.09 183.11 9.6 190.09 10.08 172.83 24.72 176.52 29.27 188.73 21.76 210.05 30.14 214.9 21.76 195.32 18.78 199.29 16.28 194.64 11.24 203.27 11.05 204.43 11.92 202.3 15.51 207.05 18.78 213.44 11.92 208.11 4.46 186.31 4.85 187.66 2.62 176.03 0"/><polygon points="191.54 64.45 189.79 68.91 211.31 75.7 214.8 65.04 191.54 64.45"/><path d="M208.79,61.93l-.87-30.73-36.25,1.06.29-2.12h-7.75l-1.07,31.5,9.69.2-14,7.56,2.61,4.84,21.71-5.71-4.45-6.6ZM172.83,47V44.2H196V39.74l-24.43-.58V36.25l28.21,1.16L198.91,56,173.8,55l.2-2.77h22V47Z"/><polygon points="236.69 10.49 241.24 18.63 228.55 18.63 228.55 23.48 260.73 26.48 260.73 17.66 248.32 18.48 252.58 10.49 236.69 10.49"/><polygon points="232.23 28.32 232.23 36.74 257.14 35.4 257.14 30.94 232.23 28.32"/><polygon points="232.23 41.41 232.23 46.54 257.14 47.61 257.14 39.08 232.23 41.41"/><polygon points="263.15 12.62 263.15 23.09 270.81 23.09 270.03 37.43 261.6 37.43 261.6 47.13 269.35 46.45 268 74.56 280.3 74.56 279.14 45.58 286.41 45.38 286.41 38.21 278.37 38.5 277.59 21.54 289.32 20.08 288.06 74.56 306.18 74.56 306.18 60.7 299.2 65.73 296.59 13.2 263.15 12.62"/><path d="M258.88,73.49,257.72,51.1l-19.29,1.26-.09-1.75h-7.08l-1.16,22.1h17.73v1.85Zm-18.37-9V58.74L249,60.5v6.64Z"/></g></g></svg>