<svg xmlns="http://www.w3.org/2000/svg" viewBox="0 0 320.14 71.16"><title>資產 36</title><g id="圖層_2" data-name="圖層 2"><g id="圖層_1-2" data-name="圖層 1"><polygon points="4.83 6.28 0 21.31 15.83 21.31 18.52 15.67 4.83 6.28"/><polygon points="5.1 24.8 0 38.75 16.91 38.75 18.52 33.65 5.1 24.8"/><polygon points="1.22 50.54 9.26 62.49 20.23 50.54 16.79 43.84 1.22 50.54"/><path d="M63.13,29.75V23.2l-14.3-.54V16.14H59.51L59,5.1,23.85,8.72v6.52H36.34v6.07H21.86V31.77H38.33v5.74H32.9V35.7l-9.23-.18L21.86,61.4h27v2H62.05V36.06H47.38l.37-5.43ZM52.45,48l-1.81,6.88L34,51.45V45.29Z"/><path d="M104.6,60l13.28-.33-.5-8-12.29,1.52-.33-4.63h5.74l-.16,1.55h11.31L120.5,23H107.22l.33-4.92,13.11-.49V12.64H108l.33-4.1,10.16-.17V.67L79.68,3V7.23H94.6v4.42l-16.72-.82v8.36H95.42v4.92H87.71L87.55,22H80L78.7,48.21H97.55v5L80,54.89v4.63H97.55V63.4H77.88v7.43l42.46-2.3V63.4H104.6Zm1.14-21.49h5.1l.34-4.27h-4.69v-4l8.5.41-3.81,12.24h-5.44ZM87.66,28.87l8.77.88v3.47l-8.77-.55ZM97,41.17l-8.29-.34V38.52H97Z"/><polygon points="123.99 27.18 123.99 36.62 127.86 36.62 123.99 59.7 129.94 61.22 139.9 34.25 143.09 34.25 141.7 52.51 137.69 53.06 137.83 58.18 141.15 62.19 154.57 62.19 152.77 28.29 142.26 28.15 143.92 22.75 131.46 18.32 130.22 26.77 123.99 27.18"/><polygon points="245.85 49.8 250.13 49.8 248.66 62.61 245.85 62.61 245.85 49.8"/><polygon points="252.37 49.8 255.63 49.8 257.32 62.61 252.37 62.61 252.37 49.8"/><polygon points="258.33 49.8 260.58 49.8 264.17 61.04 259 61.94 258.33 49.8"/><polygon points="264.17 49.01 267.21 49.01 269.91 60.18 265.63 60.81 264.17 49.01"/><path d="M303.62,10.13l1.24-1.58L296.43,1,278.78,22.38l4.72,4.31,5.74-5.07.45,5.07H308.9V21.62l7.65,5.07,3-10.6Zm-13.15,10,8.09-6.27,8.32,6.83Z"/><path d="M298.68,48l-1.8-18.25h-4.83V31h-4.72V29.75h-6.07l-2.48,17.46,11.69-.9V48ZM287.1,40V36.2h5.4v4.72Z"/><path d="M320.14,48l-1.46-18.77-9.78,1.69-.22-1.17H303L301,47.1l11-.67V48Zm-11.46-8.09V36.2l5.06.79v3.93Z"/><polygon points="284.85 49.01 293.28 54.07 291.48 56.88 299.18 60.18 292.5 68.57 287.1 61.38 282.16 67.56 278.78 65.67 284.85 49.01"/><polygon points="305.64 49.01 313.74 54.41 311.94 56.99 320.14 60.18 313.74 67.89 307.67 60.81 303.17 67.89 299.18 65.67 305.64 49.01"/><path d="M276.76,39.91l-9.78.67-.22-5.53h7.3v-7.5h-8V22.94h8V17.11h-8.2L265.52,12l8.54.73V4.68l-19.89.84V3.83h-7.75l.45,43.38h6.07V45.75l19.21,1.91-1.46,15.06-3,.34.22,3.15,2,2.36h7.64Zm-23.88,1.26.08-6.92h6.8l.46,6.39Zm.54-12.54.56-5.31h5.58l.66,5.31Zm6.8-12.54H254v-4.5l6.24.45Z"/><polygon points="165.2 36.11 175.35 36.11 175.03 37.01 192.88 37.01 194.19 67.63 182.89 67.63 180.84 65.34 180.68 62.19 184.03 62.19 185.1 42.82 173.88 41.76 173.88 45.69 182.15 45.94 181.99 50.19 173.64 49.95 173.39 53.8 181.99 52.65 181.74 58.55 172.82 58.3 172 65.83 165.2 65.67 165.2 36.11"/><path d="M236.93,32.18,235.7,5.65l-8.92.41V0h-7.54V6.71h-3.43V0h-5.33V6.71h-4.42V5.08h-6.22l-1.72,26.69,29.64-.57v1Zm-26.45-6.06H207v-4.5h3.44Zm.33-11.38h-4.67V10.81h4.67Zm15.07-2h3.35v4.34h-3.35Zm-9.26,13.35v-4.5h3.61l.24,4.5Zm3.85-10H216V12h4.5Zm5,10.6.41-5.07,2.94.24v4.83Z"/><polygon points="201.07 36.11 201.07 40.86 232.67 41.76 232.67 35.05 201.07 36.11"/><polygon points="206.55 60.18 213.59 60.18 214.66 64.69 221.04 64.69 219.82 60.76 231.2 60.59 230.05 65.34 234.8 65.34 234.8 70.83 201.07 71.16 201.07 63.7 206.88 63.7 206.55 60.18"/><path d="M193.51,23.86l-.14-18.68-21-.08V3.93h-7.47V23.58h-3.32V34.25h7.33v-4l20.76.75-1.24,3.21h7.19V24.14Zm-17.16,1.26H173v-6h3.81Zm8.47,0h-3.44V14.94l-8.35-.2V10.26l13,.55Z"/><path d="M231.2,58.55l-.57-14.91-19.25,1.15V43.32h-6.87L203.28,57.4h18.5v1.15Zm-20.39-6.68V49.8L223.38,49v2.86Z"/></g></g></svg>